<svg width="100" height="100" viewBox="0 0 100 100" fill="none" xmlns="http://www.w3.org/2000/svg">
<mask id="path-1-outside-1" maskUnits="userSpaceOnUse" x="4.08623" y="9" width="93" height="84" fill="black">
<rect fill="white" x="4.08623" y="9" width="93" height="84"/>
<path fill-rule="evenodd" clip-rule="evenodd" d="M28.0891 24C28.5943 19.3333 30.0089 11 31.6256 11C33.2422 11 36.6672 18.6667 37.6776 22.5H39.7088C40.8876 18.6667 43.5483 11 44.7608 11C45.9733 11 49.6444 18.6667 51.3284 22.5L53.8544 25C55.967 25.0747 59.1264 25.6244 61.9706 27H73H74.913V27.0858C86.1675 28.0993 95 37.9713 95 50C95 62.0287 86.1675 71.9007 74.913 72.9142V73H74V75H78C79.1046 75 80 75.8954 80 77V89C80 90.1046 79.1046 91 78 91H22C20.8954 91 20 90.1046 20 89V78H16C14.8954 78 14 77.1046 14 76V72.75H6.08623L25.0509 39.9022C24.4495 39.4405 23.8707 38.8854 23.382 38.233L19.6581 39.4743L19.3419 38.5257L22.8223 37.3655C22.565 36.8956 22.3562 36.3851 22.2133 35.833L18.5894 36.4919L18.4106 35.5081L22.0367 34.8488C21.9925 34.4208 21.9871 33.9713 22.0267 33.5C22.4309 28.7 25 26 28.0891 24ZM45.0776 48.785L45.2017 49H51V48.8843L45.0776 48.785Z"/>
</mask>
<path fill-rule="evenodd" clip-rule="evenodd" d="M28.0891 24C28.5943 19.3333 30.0089 11 31.6256 11C33.2422 11 36.6672 18.6667 37.6776 22.5H39.7088C40.8876 18.6667 43.5483 11 44.7608 11C45.9733 11 49.6444 18.6667 51.3284 22.5L53.8544 25C55.967 25.0747 59.1264 25.6244 61.9706 27H73H74.913V27.0858C86.1675 28.0993 95 37.9713 95 50C95 62.0287 86.1675 71.9007 74.913 72.9142V73H74V75H78C79.1046 75 80 75.8954 80 77V89C80 90.1046 79.1046 91 78 91H22C20.8954 91 20 90.1046 20 89V78H16C14.8954 78 14 77.1046 14 76V72.75H6.08623L25.0509 39.9022C24.4495 39.4405 23.8707 38.8854 23.382 38.233L19.6581 39.4743L19.3419 38.5257L22.8223 37.3655C22.565 36.8956 22.3562 36.3851 22.2133 35.833L18.5894 36.4919L18.4106 35.5081L22.0367 34.8488C21.9925 34.4208 21.9871 33.9713 22.0267 33.5C22.4309 28.7 25 26 28.0891 24ZM45.0776 48.785L45.2017 49H51V48.8843L45.0776 48.785Z" fill="white"/>
<path d="M28.0891 24L29.1761 25.6789C29.6816 25.3516 30.0127 24.814 30.0775 24.2153L28.0891 24ZM37.6776 22.5L35.7436 23.0098C35.9751 23.888 36.7693 24.5 37.6776 24.5V22.5ZM39.7088 22.5V24.5C40.5869 24.5 41.3623 23.9272 41.6204 23.0879L39.7088 22.5ZM51.3284 22.5L49.4973 23.3044C49.5986 23.535 49.7425 23.7444 49.9215 23.9215L51.3284 22.5ZM53.8544 25L52.4475 26.4215C52.8046 26.7749 53.2816 26.981 53.7837 26.9988L53.8544 25ZM61.9706 27L61.0998 28.8005C61.3713 28.9318 61.669 29 61.9706 29V27ZM74.913 27H76.913C76.913 25.8954 76.0176 25 74.913 25V27ZM74.913 27.0858H72.913C72.913 28.1208 73.7028 28.9849 74.7337 29.0777L74.913 27.0858ZM74.913 72.9142L74.7337 70.9223C73.7028 71.0151 72.913 71.8792 72.913 72.9142H74.913ZM74.913 73V75C76.0176 75 76.913 74.1046 76.913 73H74.913ZM74 73V71C72.8954 71 72 71.8954 72 73H74ZM74 75H72C72 76.1046 72.8954 77 74 77V75ZM20 78H22C22 76.8954 21.1046 76 20 76V78ZM14 72.75H16C16 71.6454 15.1046 70.75 14 70.75V72.75ZM6.08623 72.75L4.35418 71.75C3.99691 72.3688 3.99691 73.1312 4.35418 73.75C4.71144 74.3688 5.3717 74.75 6.08623 74.75V72.75ZM25.0509 39.9022L26.783 40.9022C27.2847 40.0331 27.0648 38.9268 26.2688 38.3158L25.0509 39.9022ZM23.382 38.233L24.9827 37.0339C24.4663 36.3446 23.5666 36.0633 22.7496 36.3357L23.382 38.233ZM19.6581 39.4743L17.7607 40.1068C17.9285 40.61 18.2893 41.026 18.7637 41.2632C19.2381 41.5004 19.7874 41.5394 20.2906 41.3717L19.6581 39.4743ZM19.3419 38.5257L18.7094 36.6283C17.6615 36.9776 17.0952 38.1102 17.4445 39.1581L19.3419 38.5257ZM22.8223 37.3655L23.4547 39.2629C24.0171 39.0754 24.4673 38.6482 24.6839 38.0964C24.9006 37.5446 24.8613 36.9252 24.5766 36.4052L22.8223 37.3655ZM22.2133 35.833L24.1495 35.332C23.8871 34.3177 22.8863 33.6779 21.8555 33.8653L22.2133 35.833ZM18.5894 36.4919L16.6217 36.8497C16.7166 37.3716 17.0149 37.8344 17.451 38.1363C17.8871 38.4382 18.4253 38.5546 18.9472 38.4597L18.5894 36.4919ZM18.4106 35.5081L18.0528 33.5403C16.966 33.7379 16.2452 34.7791 16.4428 35.8658L18.4106 35.5081ZM22.0367 34.8488L22.3945 36.8165C23.4225 36.6296 24.1334 35.6828 24.0261 34.6434L22.0367 34.8488ZM22.0267 33.5L24.0197 33.6678V33.6678L22.0267 33.5ZM45.2017 49L43.4697 50C43.8269 50.6188 44.4872 51 45.2017 51V49ZM45.0776 48.785L45.1111 46.7853C44.3907 46.7732 43.7194 47.1495 43.354 47.7705C42.9885 48.3914 42.9852 49.161 43.3455 49.785L45.0776 48.785ZM51 49V51C52.1046 51 53 50.1046 53 49H51ZM51 48.8843H53C53 47.7928 52.1249 46.9029 51.0335 46.8846L51 48.8843ZM31.6256 9C30.5215 9 29.8114 9.69945 29.4838 10.0988C29.1175 10.5454 28.8403 11.0843 28.6251 11.5839C28.1862 12.6031 27.8103 13.9279 27.4923 15.2979C26.8498 18.0665 26.3589 21.4005 26.1008 23.7847L30.0775 24.2153C30.3246 21.9328 30.7936 18.7668 31.3888 16.2021C31.6897 14.9055 32.0021 13.8553 32.2989 13.1661C32.3701 13.0007 32.4334 12.873 32.4866 12.7781C32.5128 12.7314 32.5344 12.6965 32.5509 12.6717C32.559 12.6595 32.5654 12.6505 32.5699 12.6443C32.5744 12.6381 32.5767 12.6354 32.5765 12.6356C32.5763 12.6358 32.5732 12.6396 32.5669 12.6464C32.5606 12.6532 32.5504 12.6637 32.5361 12.6769C32.5085 12.7025 32.4592 12.7443 32.3864 12.7898C32.2359 12.8841 31.9732 13 31.6256 13V9ZM39.6115 21.9902C39.0644 19.9145 37.9009 16.912 36.6717 14.426C36.0575 13.1838 35.3892 11.9931 34.7306 11.0843C34.4052 10.6351 34.0321 10.1846 33.6187 9.82601C33.2661 9.52015 32.5685 9 31.6256 9V13C31.0867 13 30.8499 12.7194 30.9979 12.8478C31.0852 12.9235 31.2528 13.1018 31.4916 13.4313C31.9615 14.0798 32.5157 15.0453 33.0861 16.199C34.2261 18.5047 35.2804 21.2522 35.7436 23.0098L39.6115 21.9902ZM39.7088 20.5H37.6776V24.5H39.7088V20.5ZM44.7608 9C44.1573 9 43.6927 9.23459 43.4144 9.41851C43.129 9.60713 42.9059 9.83005 42.7426 10.0156C42.4168 10.3858 42.1292 10.8391 41.8829 11.2766C41.3802 12.1694 40.8589 13.3427 40.3667 14.5659C39.3744 17.0319 38.3961 19.9644 37.7971 21.9121L41.6204 23.0879C42.2003 21.2023 43.1417 18.3847 44.0775 16.0591C44.5494 14.8864 44.9943 13.9035 45.3684 13.239C45.5605 12.8978 45.6889 12.7223 45.7453 12.6583C45.7731 12.6267 45.7325 12.6811 45.6199 12.7556C45.5144 12.8253 45.2127 13 44.7608 13V9ZM53.1595 21.6956C52.3054 19.7514 50.944 16.8265 49.6318 14.3701C48.98 13.15 48.3118 11.9912 47.7041 11.1167C47.4053 10.6865 47.0749 10.2573 46.7278 9.91435C46.5545 9.74307 46.3285 9.54447 46.0548 9.37807C45.7987 9.2224 45.3466 9 44.7608 9V13C44.3265 13 44.0451 12.8375 43.9769 12.796C43.891 12.7438 43.8698 12.7136 43.9162 12.7595C44.0086 12.8508 44.1771 13.0505 44.4192 13.399C44.8935 14.0817 45.4756 15.0792 46.1037 16.2549C47.3512 18.5902 48.6674 21.4152 49.4973 23.3044L53.1595 21.6956ZM55.2613 23.5785L52.7353 21.0785L49.9215 23.9215L52.4475 26.4215L55.2613 23.5785ZM62.8414 25.1995C59.6993 23.6798 56.2566 23.0837 53.925 23.0012L53.7837 26.9988C55.6773 27.0657 58.5536 27.569 61.0998 28.8005L62.8414 25.1995ZM73 25H61.9706V29H73V25ZM74.913 25H73V29H74.913V25ZM76.913 27.0858V27H72.913V27.0858H76.913ZM97 50C97 37.0007 87.4408 26.2058 75.0924 25.0938L74.7337 29.0777C84.8943 29.9927 93 38.9419 93 50H97ZM75.0924 74.9062C87.4408 73.7942 97 62.9993 97 50H93C93 61.0581 84.8943 70.0073 74.7337 70.9223L75.0924 74.9062ZM76.913 73V72.9142H72.913V73H76.913ZM74 75H74.913V71H74V75ZM76 75V73H72V75H76ZM78 73H74V77H78V73ZM82 77C82 74.7909 80.2091 73 78 73V77H82ZM82 89V77H78V89H82ZM78 93C80.2091 93 82 91.2091 82 89H78V93ZM22 93H78V89H22V93ZM18 89C18 91.2091 19.7909 93 22 93V89H22H18ZM18 78V89H22V78H18ZM16 80H20V76H16V80ZM12 76C12 78.2091 13.7909 80 16 80V76H16H12ZM12 72.75V76H16V72.75H12ZM6.08623 74.75H14V70.75H6.08623V74.75ZM23.3189 38.9022L4.35418 71.75L7.81828 73.75L26.783 40.9022L23.3189 38.9022ZM21.7814 39.4322C22.3966 40.2535 23.1116 40.9348 23.833 41.4886L26.2688 38.3158C25.7873 37.9461 25.3448 37.5173 24.9827 37.0339L21.7814 39.4322ZM20.2906 41.3717L24.0145 40.1304L22.7496 36.3357L19.0257 37.577L20.2906 41.3717ZM17.4445 39.1581L17.7607 40.1068L21.5555 38.8419L21.2393 37.8932L17.4445 39.1581ZM22.1898 35.4682L18.7094 36.6283L19.9743 40.423L23.4547 39.2629L22.1898 35.4682ZM20.2771 36.3341C20.4638 37.0558 20.7362 37.7199 21.0679 38.3258L24.5766 36.4052C24.3939 36.0713 24.2485 35.7144 24.1495 35.332L20.2771 36.3341ZM18.9472 38.4597L22.5711 37.8008L21.8555 33.8653L18.2317 34.5242L18.9472 38.4597ZM16.4428 35.8658L16.6217 36.8497L20.5572 36.1342L20.3783 35.1503L16.4428 35.8658ZM21.6789 32.881L18.0528 33.5403L18.7683 37.4758L22.3945 36.8165L21.6789 32.881ZM20.0338 33.3322C19.9838 33.9254 19.99 34.4998 20.0473 35.0541L24.0261 34.6434C23.995 34.3417 23.9903 34.0172 24.0197 33.6678L20.0338 33.3322ZM27.0022 22.3211C23.5964 24.5261 20.5073 27.7091 20.0338 33.3322L24.0197 33.6678C24.3545 29.6909 26.4036 27.4739 29.1761 25.6789L27.0022 22.3211ZM46.9338 48L46.8096 47.785L43.3455 49.785L43.4697 50L46.9338 48ZM51 47H45.2017V51H51V47ZM49 48.8843V49H53V48.8843H49ZM45.044 50.7847L50.9665 50.884L51.0335 46.8846L45.1111 46.7853L45.044 50.7847Z" fill="white" mask="url(#path-1-outside-1)"/>
<g style="mix-blend-mode:multiply">
<path d="M32.5 27L58.9138 72.75H6.08623L32.5 27Z" fill="#7BEFFF"/>
</g>
<g style="mix-blend-mode:multiply">
<path fill-rule="evenodd" clip-rule="evenodd" d="M74.913 72.9142C86.1675 71.9007 95 62.0287 95 50C95 37.9713 86.1675 28.0993 74.913 27.0858V27H73H51V50V73H73H74.913V72.9142Z" fill="#FF81C5"/>
</g>
<mask id="path-5-inside-2" fill="white">
<rect x="24" y="49" width="60" height="16" rx="2"/>
</mask>
<rect x="24" y="49" width="60" height="16" rx="2" fill="#B0B0FF" stroke="black" stroke-width="6" stroke-linecap="round" stroke-linejoin="round" mask="url(#path-5-inside-2)"/>
<mask id="path-6-inside-3" fill="white">
<rect x="14" y="62" width="60" height="16" rx="2"/>
</mask>
<rect x="14" y="62" width="60" height="16" rx="2" fill="#B0B0FF" stroke="black" stroke-width="6" stroke-linecap="round" stroke-linejoin="round" mask="url(#path-6-inside-3)"/>
<mask id="path-7-inside-4" fill="white">
<rect x="20" y="75" width="60" height="16" rx="2"/>
</mask>
<rect x="20" y="75" width="60" height="16" rx="2" fill="#B0B0FF" stroke="black" stroke-width="6" stroke-linecap="round" stroke-linejoin="round" mask="url(#path-7-inside-4)"/>
<path d="M31.6256 11C30.0089 11 28.5943 19.3333 28.0891 24C25 26 22.4309 28.7 22.0267 33.5C21.6226 38.3 25.8999 40.8333 28.0891 41.5C26.9103 41.1667 24.5527 41.3 24.5527 44.5C24.5527 47.7 26.9103 48.5 28.0891 48.5L57.896 49C61.264 48.5 68.5 45.3 68.5 36.5C68.5 27.7 58.5696 25.1667 53.8544 25L51.3284 22.5C49.6444 18.6667 45.9732 11 44.7608 11C43.5483 11 40.8876 18.6667 39.7088 22.5H37.6776C36.6672 18.6667 33.2422 11 31.6256 11Z" fill="black" stroke="black"/>
<path d="M58 47C61.8333 47 70.1 47 72.5 47C75.5 47 77.5 44.5 77.5 41" stroke="black" stroke-width="7" stroke-linecap="round" stroke-linejoin="round"/>
<path d="M18.5 36L24 35" stroke="black"/>
<path d="M19.5 39L24 37.5" stroke="black"/>
<rect x="27" y="62" width="44" height="3" fill="#8470FF"/>
<rect x="27" y="62" width="44" height="3" fill="#614ED5"/>
<rect x="23" y="75" width="48" height="3" fill="#614ED5"/>
</svg>
